# xmcd
#
# Track frame offsets: 
#        150
#        18599
#        54473
#        72430
#        90262
#        112858
#        144776
#        160789
#        178448
#        196973
#        216662
#        234803
#        254583
#        273547
#
# Disc length: 3876 seconds
#
# Revision: 4
# Processed by: cddbd v1.5.1PL0 Copyright (c) Steve Scherf et al.
# Submitted via: ExactAudioCopy v0.95a5
#
DISCID=c60f220e
DTITLE=Sade - Life Promise Pride Love (DVD Rip by Snooker)
DYEAR=1900
DGENRE=Soul
TTITLE0=Your love is king
TTITLE1=Smooth operator
TTITLE2=Hang on to your love
TTITLE3=Never as good as the first time
TTITLE4=Sweetest taboo
TTITLE5=Is It a crime
TTITLE6=Paradise
TTITLE7=Nothing can come between us
TTITLE8=Turn my back
TTITLE9=Love is stronger than pride
TTITLE10=No ordonary love
TTITLE11=Cherish the day
TTITLE12=Kiss of life
TTITLE13=Feel no pain
EXTD=\n\n
EXTT0=
EXTT1=
EXTT2=
EXTT3=
EXTT4=
EXTT5=
EXTT6=
EXTT7=
EXTT8=
EXTT9=
EXTT10=
EXTT11=
EXTT12=
EXTT13=
PLAYORDER=
